<svg id="Layer_1" data-name="Layer 1" xmlns="http://www.w3.org/2000/svg" xmlns:xlink="http://www.w3.org/1999/xlink" viewBox="0 0 216 216"><defs><style>.cls-1{fill:url(#linear-gradient);}.cls-2{fill:url(#linear-gradient-2);}.cls-3{fill:url(#linear-gradient-3);}</style><linearGradient id="linear-gradient" x1="5.71" y1="193.14" x2="209.13" y2="193.14" gradientUnits="userSpaceOnUse"><stop offset="0" stop-color="#226869"/><stop offset="0.66" stop-color="#3b8c73"/><stop offset="1" stop-color="#49a078"/></linearGradient><linearGradient id="linear-gradient-2" x1="5.71" y1="179.31" x2="209.13" y2="179.31" xlink:href="#linear-gradient"/><linearGradient id="linear-gradient-3" x1="5.71" y1="94.69" x2="209.13" y2="94.69" xlink:href="#linear-gradient"/></defs><path class="cls-1" d="M185.81,194.88c1.65,2,3.9,4.62,8.25,4.62s6.6-2.67,8.25-4.62,2.36-2.71,4.13-2.71a2.69,2.69,0,0,0,0-5.38c-4.35,0-6.6,2.67-8.25,4.61s-2.36,2.71-4.13,2.71-2.59-.88-4.13-2.71-3.91-4.61-8.25-4.61-6.6,2.67-8.25,4.62-2.36,2.7-4.13,2.7-2.59-.88-4.13-2.71-3.9-4.61-8.25-4.61-6.6,2.67-8.24,4.61-2.37,2.71-4.14,2.71-2.58-.88-4.13-2.71-3.9-4.61-8.24-4.61-6.6,2.67-8.25,4.62-2.36,2.7-4.13,2.7-2.59-.88-4.13-2.7-3.9-4.62-8.25-4.62-6.6,2.67-8.24,4.62-2.37,2.7-4.13,2.7-2.59-.88-4.13-2.71-3.9-4.61-8.25-4.61-6.6,2.67-8.24,4.62-2.37,2.7-4.13,2.7-2.59-.88-4.13-2.7-3.9-4.62-8.25-4.62-6.6,2.67-8.24,4.62-2.37,2.7-4.13,2.7-2.59-.88-4.14-2.7-3.9-4.62-8.24-4.62-6.6,2.67-8.24,4.62-2.37,2.7-4.14,2.7-2.58-.88-4.13-2.7-3.9-4.62-8.24-4.62a2.69,2.69,0,1,0,0,5.38c1.76,0,2.58.88,4.13,2.71s3.9,4.62,8.24,4.62,6.6-2.67,8.25-4.62,2.36-2.71,4.13-2.71,2.59.88,4.13,2.71,3.9,4.62,8.25,4.62,6.6-2.67,8.24-4.62,2.37-2.71,4.13-2.71,2.59.88,4.13,2.71,3.9,4.62,8.25,4.62,6.59-2.67,8.24-4.62,2.37-2.71,4.13-2.71,2.59.88,4.13,2.71,3.9,4.62,8.25,4.62,6.6-2.67,8.24-4.62,2.37-2.71,4.13-2.71,2.59.88,4.13,2.71,3.91,4.62,8.25,4.62,6.6-2.67,8.24-4.62,2.37-2.71,4.14-2.71,2.58.88,4.13,2.71,3.9,4.62,8.24,4.62,6.6-2.67,8.25-4.62,2.37-2.71,4.13-2.71,2.59.88,4.13,2.71,3.91,4.62,8.25,4.62,6.6-2.67,8.25-4.62,2.36-2.71,4.13-2.71S184.27,193.05,185.81,194.88Z"/><path class="cls-2" d="M206.44,173c-4.35,0-6.6,2.67-8.25,4.62s-2.36,2.71-4.13,2.71-2.59-.88-4.13-2.71S186,173,181.68,173s-6.6,2.67-8.25,4.62-2.36,2.71-4.13,2.71-2.59-.88-4.13-2.71-3.9-4.62-8.25-4.62-6.6,2.67-8.24,4.62-2.37,2.71-4.14,2.71-2.58-.88-4.13-2.71-3.9-4.62-8.24-4.62-6.6,2.67-8.25,4.62-2.36,2.71-4.13,2.71-2.59-.88-4.13-2.71-3.9-4.62-8.25-4.62-6.6,2.67-8.24,4.62-2.37,2.71-4.13,2.71-2.59-.88-4.13-2.71S87,173,82.66,173s-6.6,2.67-8.24,4.62-2.37,2.71-4.13,2.71-2.59-.88-4.13-2.71S62.26,173,57.91,173s-6.6,2.67-8.24,4.62-2.37,2.71-4.13,2.71-2.59-.88-4.14-2.71S37.5,173,33.16,173s-6.6,2.67-8.24,4.62-2.37,2.71-4.14,2.71-2.58-.88-4.13-2.71S12.75,173,8.41,173a2.7,2.7,0,1,0,0,5.39c1.76,0,2.58.88,4.13,2.71s3.9,4.61,8.24,4.61,6.6-2.67,8.25-4.61,2.36-2.71,4.13-2.71,2.59.88,4.13,2.71,3.9,4.61,8.25,4.61,6.6-2.67,8.24-4.61,2.37-2.71,4.13-2.71,2.59.88,4.13,2.71,3.9,4.61,8.25,4.61,6.59-2.67,8.24-4.61,2.37-2.71,4.13-2.71,2.59.88,4.13,2.71,3.9,4.61,8.25,4.61,6.6-2.67,8.24-4.61,2.37-2.71,4.13-2.71,2.59.88,4.13,2.71,3.91,4.61,8.25,4.61,6.6-2.67,8.24-4.61,2.37-2.71,4.14-2.71,2.58.88,4.13,2.71,3.9,4.61,8.24,4.61,6.6-2.67,8.25-4.61,2.37-2.71,4.13-2.71,2.59.88,4.13,2.71,3.91,4.61,8.25,4.61,6.6-2.67,8.25-4.61,2.36-2.71,4.13-2.71,2.59.88,4.13,2.71,3.9,4.61,8.25,4.61,6.6-2.67,8.25-4.61,2.36-2.71,4.13-2.71a2.7,2.7,0,0,0,0-5.39Z"/><path class="cls-3" d="M208.34,18.34a2.66,2.66,0,0,0-1.9-.79H8.41a2.69,2.69,0,0,0-2.7,2.69v141a1.14,1.14,0,0,1,0,.52,2.69,2.69,0,0,0,2.7,2.69c1.76,0,2.58.88,4.13,2.71s3.9,4.62,8.24,4.62,6.6-2.67,8.25-4.62,2.36-2.71,4.13-2.71,2.59.88,4.13,2.71,3.9,4.62,8.25,4.62,6.6-2.67,8.24-4.62,2.37-2.71,4.13-2.71,2.59.88,4.13,2.71,3.9,4.62,8.25,4.62,6.59-2.67,8.24-4.62,2.37-2.71,4.13-2.71,2.59.88,4.13,2.71,3.9,4.62,8.25,4.62,6.6-2.67,8.24-4.62,2.37-2.71,4.13-2.71,2.59.88,4.13,2.71,3.91,4.62,8.25,4.62,6.6-2.67,8.24-4.62,2.37-2.71,4.14-2.71,2.58.88,4.13,2.71,3.9,4.62,8.24,4.62,6.6-2.67,8.25-4.62,2.37-2.71,4.13-2.71,2.59.88,4.13,2.71,3.91,4.62,8.25,4.62,6.6-2.67,8.25-4.62,2.36-2.71,4.13-2.71,2.59.88,4.13,2.71,3.9,4.62,8.25,4.62,6.6-2.67,8.25-4.62,2.36-2.71,4.13-2.71a2.68,2.68,0,0,0,2.69-2.69,2.59,2.59,0,0,0-.16-.88l.16-140.69A2.66,2.66,0,0,0,208.34,18.34ZM203.6,152.65l-40.08-57V22.93h40.22ZM56.71,105l9.36,13.25-9.36,13.32Zm12.65,8.57L56.71,95.65V22.93H158.14V95.65l-12.66,17.89-35.85-51a2.7,2.7,0,0,0-4.41,0Zm52.41-24.37H110.29V72.84Zm-11.48,5.39h14.93c.11,0,.21,0,.32,0l13.81,19.64H110.29Zm0,25h32.84l14.24,20.25H110.29Zm38.48-1.35L158.14,105v26.57ZM51.32,22.93V95.65L11.1,152.87V22.93ZM24.92,163.74c-1.55,1.82-2.37,2.7-4.14,2.7s-2.58-.88-4.13-2.7a13.73,13.73,0,0,0-4.07-3.62L51.32,105V139.2L36.8,159.86a8.93,8.93,0,0,0-3.64-.74C28.82,159.12,26.56,161.79,24.92,163.74Zm74.25,0c-1.55,1.82-2.37,2.7-4.13,2.7s-2.59-.88-4.13-2.7-3.9-4.62-8.25-4.62-6.6,2.67-8.24,4.62-2.37,2.7-4.13,2.7-2.59-.88-4.13-2.7-3.9-4.62-8.25-4.62-6.6,2.67-8.24,4.62-2.37,2.7-4.13,2.7-2.59-.88-4.14-2.7l-.41-.49,15.26-21.7h0l48.65-69.2v87.11A11.61,11.61,0,0,0,99.17,163.74Zm70.13,2.7c-1.77,0-2.59-.88-4.13-2.71s-3.9-4.61-8.25-4.61-6.6,2.67-8.24,4.62-2.37,2.7-4.14,2.7-2.58-.88-4.13-2.7-3.9-4.62-8.24-4.62-6.6,2.67-8.25,4.62-2.36,2.7-4.13,2.7-2.59-.88-4.13-2.7a12,12,0,0,0-5.37-4.18V145.19h50.87l12.69,18.06-.42.49C171.89,165.56,171.07,166.44,169.3,166.44Zm28.89-2.7c-1.54,1.82-2.36,2.7-4.13,2.7s-2.59-.88-4.13-2.71-3.91-4.61-8.25-4.61a9,9,0,0,0-3.63.73L163.52,139.2V105l38.74,55.11A13.85,13.85,0,0,0,198.19,163.74Z"/></svg>