<svg id="Layer_1" data-name="Layer 1" xmlns="http://www.w3.org/2000/svg" xmlns:xlink="http://www.w3.org/1999/xlink" viewBox="0 0 300 238"><defs><style>.cls-1{fill:url(#linear-gradient);}.cls-2{fill:url(#linear-gradient-2);}.cls-3{fill:url(#linear-gradient-3);}.cls-4{fill:url(#linear-gradient-4);}.cls-5{fill:url(#linear-gradient-5);}.cls-6{fill:url(#linear-gradient-6);}.cls-7{fill:url(#linear-gradient-7);}.cls-8{fill:url(#linear-gradient-8);}.cls-9{fill:url(#linear-gradient-9);}.cls-10{fill:url(#linear-gradient-10);}.cls-11{fill:url(#linear-gradient-11);}.cls-12{fill:url(#linear-gradient-12);}.cls-13{fill:url(#linear-gradient-13);}.cls-14{fill:url(#linear-gradient-14);}.cls-15{fill:url(#linear-gradient-15);}</style><linearGradient id="linear-gradient" x1="40.63" y1="188.07" x2="255.03" y2="188.07" gradientUnits="userSpaceOnUse"><stop offset="0" stop-color="#226869"/><stop offset="0.66" stop-color="#3b8c73"/><stop offset="1" stop-color="#49a078"/></linearGradient><linearGradient id="linear-gradient-2" x1="40.63" y1="173.49" x2="255.03" y2="173.49" xlink:href="#linear-gradient"/><linearGradient id="linear-gradient-3" x1="40.63" y1="84.3" x2="255.03" y2="84.3" xlink:href="#linear-gradient"/><linearGradient id="linear-gradient-4" x1="251.21" y1="214.17" x2="105.9" y2="220.21" xlink:href="#linear-gradient"/><linearGradient id="linear-gradient-5" x1="251.25" y1="215.1" x2="105.94" y2="221.14" xlink:href="#linear-gradient"/><linearGradient id="linear-gradient-6" x1="251.38" y1="218.41" x2="106.08" y2="224.45" xlink:href="#linear-gradient"/><linearGradient id="linear-gradient-7" x1="251.41" y1="219.07" x2="106.11" y2="225.1" xlink:href="#linear-gradient"/><linearGradient id="linear-gradient-8" x1="251.43" y1="219.58" x2="106.13" y2="225.61" xlink:href="#linear-gradient"/><linearGradient id="linear-gradient-9" x1="251.39" y1="218.52" x2="106.08" y2="224.55" xlink:href="#linear-gradient"/><linearGradient id="linear-gradient-10" x1="251.49" y1="220.87" x2="106.18" y2="226.9" xlink:href="#linear-gradient"/><linearGradient id="linear-gradient-11" x1="251.51" y1="221.5" x2="106.21" y2="227.53" xlink:href="#linear-gradient"/><linearGradient id="linear-gradient-12" x1="251.55" y1="222.36" x2="106.24" y2="228.39" xlink:href="#linear-gradient"/><linearGradient id="linear-gradient-13" x1="251.46" y1="220.13" x2="106.15" y2="226.16" xlink:href="#linear-gradient"/><linearGradient id="linear-gradient-14" x1="251.49" y1="220.99" x2="106.19" y2="227.02" xlink:href="#linear-gradient"/><linearGradient id="linear-gradient-15" x1="251.54" y1="222.07" x2="106.23" y2="228.11" xlink:href="#linear-gradient"/></defs><path class="cls-1" d="M230.45,189.91c1.74,2.05,4.11,4.86,8.69,4.86s7-2.81,8.69-4.86,2.5-2.86,4.36-2.86a2.84,2.84,0,1,0,0-5.67c-4.58,0-7,2.81-8.69,4.86s-2.5,2.86-4.36,2.86-2.73-.93-4.36-2.86-4.11-4.86-8.69-4.86-7,2.81-8.69,4.86-2.49,2.86-4.35,2.86-2.73-.93-4.36-2.86-4.11-4.86-8.69-4.86-7,2.81-8.69,4.86-2.49,2.86-4.36,2.86-2.72-.93-4.35-2.86-4.11-4.86-8.69-4.86-7,2.81-8.69,4.86-2.5,2.86-4.36,2.86-2.72-.93-4.35-2.86-4.11-4.86-8.69-4.86-6.95,2.81-8.69,4.86-2.49,2.86-4.35,2.86-2.73-.93-4.36-2.86-4.11-4.86-8.69-4.86-7,2.81-8.69,4.86-2.49,2.86-4.35,2.86-2.73-.93-4.35-2.86-4.12-4.86-8.69-4.86-7,2.81-8.69,4.86-2.5,2.86-4.36,2.86-2.72-.93-4.35-2.86-4.11-4.86-8.69-4.86-7,2.81-8.69,4.86-2.49,2.86-4.35,2.86-2.73-.93-4.36-2.86-4.11-4.86-8.69-4.86a2.84,2.84,0,1,0,0,5.67c1.86,0,2.73.93,4.35,2.86s4.12,4.86,8.7,4.86,6.95-2.81,8.68-4.86,2.5-2.86,4.36-2.86,2.72.93,4.35,2.86,4.11,4.86,8.69,4.86,7-2.81,8.69-4.86,2.5-2.86,4.36-2.86,2.72.93,4.35,2.86,4.11,4.86,8.69,4.86,7-2.81,8.69-4.86,2.49-2.86,4.35-2.86,2.73.93,4.36,2.86,4.11,4.86,8.69,4.86,6.95-2.81,8.69-4.86,2.49-2.86,4.35-2.86,2.73.93,4.35,2.86,4.12,4.86,8.69,4.86,7-2.81,8.69-4.86,2.5-2.86,4.36-2.86,2.72.93,4.35,2.86,4.12,4.86,8.69,4.86,7-2.81,8.7-4.86,2.49-2.86,4.35-2.86,2.73.93,4.36,2.86,4.11,4.86,8.69,4.86,6.95-2.81,8.69-4.86,2.49-2.86,4.35-2.86S228.82,188,230.45,189.91Z"/><path class="cls-2" d="M252.19,166.8c-4.58,0-7,2.81-8.69,4.86s-2.5,2.86-4.36,2.86-2.73-.93-4.36-2.86-4.11-4.86-8.69-4.86-7,2.81-8.69,4.86-2.49,2.86-4.35,2.86-2.73-.93-4.36-2.86-4.11-4.86-8.69-4.86-7,2.81-8.69,4.86-2.49,2.86-4.36,2.86-2.72-.93-4.35-2.86-4.11-4.86-8.69-4.86-7,2.81-8.69,4.86-2.5,2.86-4.36,2.86-2.72-.93-4.35-2.86-4.11-4.86-8.69-4.86-6.95,2.81-8.69,4.86-2.49,2.86-4.35,2.86-2.73-.93-4.36-2.86-4.11-4.86-8.69-4.86-7,2.81-8.69,4.86-2.49,2.86-4.35,2.86-2.73-.93-4.35-2.86-4.12-4.86-8.69-4.86-7,2.81-8.69,4.86-2.5,2.86-4.36,2.86-2.72-.93-4.35-2.86-4.11-4.86-8.69-4.86-7,2.81-8.69,4.86-2.49,2.86-4.35,2.86-2.73-.93-4.36-2.86-4.11-4.86-8.69-4.86a2.84,2.84,0,1,0,0,5.67c1.86,0,2.73.93,4.35,2.86s4.12,4.86,8.7,4.86,6.95-2.81,8.68-4.86,2.5-2.86,4.36-2.86,2.72.93,4.35,2.85,4.11,4.87,8.69,4.87,7-2.81,8.69-4.87,2.5-2.85,4.36-2.85,2.72.93,4.35,2.85,4.11,4.87,8.69,4.87,7-2.81,8.69-4.87,2.49-2.85,4.35-2.85,2.73.93,4.36,2.85,4.11,4.87,8.69,4.87,6.95-2.81,8.69-4.87,2.49-2.85,4.35-2.85,2.73.93,4.35,2.85,4.12,4.87,8.69,4.87,7-2.81,8.69-4.87,2.5-2.85,4.36-2.85,2.72.93,4.35,2.86,4.12,4.86,8.69,4.86,7-2.81,8.7-4.86,2.49-2.86,4.35-2.86,2.73.93,4.36,2.86,4.11,4.86,8.69,4.86,6.95-2.81,8.69-4.86,2.49-2.86,4.35-2.86,2.73.93,4.36,2.86,4.11,4.86,8.69,4.86,7-2.81,8.69-4.86,2.5-2.86,4.36-2.86a2.84,2.84,0,1,0,0-5.67Z"/><path class="cls-3" d="M254.2,3.83a2.85,2.85,0,0,0-2-.83H43.47a2.84,2.84,0,0,0-2.84,2.84V154.5a2.66,2.66,0,0,0,0,.28,2.48,2.48,0,0,0,0,.27,2.84,2.84,0,0,0,2.84,2.84c1.86,0,2.73.93,4.35,2.85s4.12,4.87,8.7,4.87,6.95-2.81,8.68-4.87,2.5-2.85,4.36-2.85,2.72.93,4.35,2.85,4.11,4.87,8.69,4.87,7-2.81,8.69-4.87,2.5-2.85,4.36-2.85,2.72.93,4.35,2.85,4.11,4.87,8.69,4.87,7-2.81,8.69-4.87,2.49-2.85,4.35-2.85,2.73.93,4.36,2.85,4.11,4.87,8.69,4.87,6.95-2.81,8.69-4.87,2.49-2.85,4.35-2.85,2.73.93,4.35,2.85,4.12,4.87,8.69,4.87,7-2.81,8.69-4.87,2.5-2.85,4.36-2.85,2.72.93,4.35,2.85,4.12,4.87,8.69,4.87,7-2.81,8.7-4.87,2.49-2.85,4.35-2.85,2.73.93,4.36,2.85,4.11,4.87,8.69,4.87,6.95-2.81,8.69-4.87,2.49-2.85,4.35-2.85,2.73.93,4.36,2.85,4.11,4.87,8.69,4.87,7-2.81,8.69-4.87,2.5-2.85,4.36-2.85a2.8,2.8,0,0,0,2.67-3.76L255,5.84A2.87,2.87,0,0,0,254.2,3.83Zm-5,141.57L207,85.32V8.68h42.39ZM94.38,95.15l9.87,14-9.87,14Zm13.33,9L94.38,85.32V8.68h106.9V85.32l-13.34,18.85L150.15,50.41a2.84,2.84,0,0,0-4.64,0ZM163,78.49h-12.1V61.28Zm-12.1,5.68h15.74a1.86,1.86,0,0,0,.33,0l14.56,20.71H150.85Zm0,26.35h34.62l15,21.34H150.85Zm40.56-1.42,9.87-14v28ZM88.7,8.68V85.32l-42.39,60.3V8.68ZM60.87,157.08c-1.63,1.93-2.49,2.85-4.35,2.85s-2.73-.92-4.36-2.85a14.68,14.68,0,0,0-4.29-3.81L88.7,95.19v36L73.39,153a9.46,9.46,0,0,0-3.83-.78C65,152.21,62.6,155,60.87,157.08Zm78.26,0c-1.63,1.93-2.49,2.85-4.35,2.85s-2.73-.92-4.36-2.85-4.11-4.87-8.69-4.87-7,2.82-8.69,4.87-2.49,2.85-4.35,2.85-2.73-.92-4.35-2.85-4.12-4.87-8.69-4.87-7,2.82-8.69,4.87-2.5,2.85-4.36,2.85-2.72-.92-4.35-2.85l-.43-.51L93.89,133.7h0l51.28-72.94v91.81C142.26,153.39,140.49,155.47,139.13,157.08Zm73.92,2.85c-1.87,0-2.73-.92-4.36-2.85s-4.11-4.87-8.69-4.87-7,2.82-8.69,4.87-2.49,2.85-4.36,2.85-2.72-.92-4.35-2.85-4.11-4.87-8.69-4.87-7,2.82-8.69,4.87-2.5,2.85-4.36,2.85-2.72-.92-4.35-2.85a12.73,12.73,0,0,0-5.66-4.4V137.54h53.61l13.38,19-.44.51C215.77,159,214.91,159.93,213.05,159.93Zm30.45-2.85c-1.63,1.93-2.5,2.85-4.36,2.85s-2.73-.92-4.36-2.85-4.11-4.87-8.69-4.87a9.37,9.37,0,0,0-3.82.78L207,131.22v-36l40.83,58.08A14.55,14.55,0,0,0,243.5,157.08Z"/><path class="cls-4" d="M53.15,234.46v-.9h3.7l-2.12-6.36h-7.8l-2.23,6.36h3.67v.9H40.74v-.9h2.88l8.59-23.66h1.26l8.2,23.66h2.84v.9ZM51,216.27l-3.63,10h7Z"/><path class="cls-5" d="M79.43,234.46c-.6,0-1.23,0-1.9.07s-1.24,0-1.69.07-.82.1-1.08.15V232a5.48,5.48,0,0,1-2.16,2.37A5.7,5.7,0,0,1,70,235a5.4,5.4,0,0,1-4.64-2.8,12.56,12.56,0,0,1-1.84-7,11.4,11.4,0,0,1,2.09-6.87c1.39-2,3-2.95,4.89-2.95a5,5,0,0,1,2.3.61,4.71,4.71,0,0,1,1.94,2.41v-7.08H72.13v-.9l1.86,0,1.38,0,1.39-.18c.53-.07,1.15-.17,1.85-.29v23.66h2.62v.9Zm-4.67-10.54a10.66,10.66,0,0,0-1.3-5.57c-.83-1.49-1.88-2.23-3.12-2.23-.84,0-1.47.53-1.88,1.58a11.54,11.54,0,0,0-.64,4.21v6.58a11.42,11.42,0,0,0,.64,4.17q.69,1.62,2,1.62c1.12,0,2.12-.71,3-2.12a8.76,8.76,0,0,0,1.37-4.85Z"/><path class="cls-6" d="M95.37,216.52,89.58,235h-1l-5.79-18.48H81v-.9h8.16v.9H86.88l3.6,12.55,3.81-12.55H91.81v-.9h5.53v.9Z"/><path class="cls-7" d="M107.84,233.2a6,6,0,0,1-4.24,1.8q-2.7,0-4.78-2.84a10.82,10.82,0,0,1-2.09-6.62,12,12,0,0,1,2.12-7.15,6.18,6.18,0,0,1,5.11-3,5.55,5.55,0,0,1,4.46,2.3,8.62,8.62,0,0,1,1.87,5.58c0,.14,0,.27,0,.38a2.68,2.68,0,0,1,0,.3c0,.17-.09.25-.26.25H101v3.45a13.37,13.37,0,0,0,.72,4.9,2.45,2.45,0,0,0,2.44,1.72,4.08,4.08,0,0,0,3.57-2.23,15.94,15.94,0,0,0,1.13-2.21,10.12,10.12,0,0,0,.63-2.18h.9A10.69,10.69,0,0,1,107.84,233.2Zm-2.19-15.82a2.07,2.07,0,0,0-1.94-1.26,2.05,2.05,0,0,0-2.16,1.66,16.89,16.89,0,0,0-.54,4.89v.64h5.21l.08-2.48A7.41,7.41,0,0,0,105.65,217.38Z"/><path class="cls-8" d="M120.72,234.46v-.9H123V222.49c0-.94,0-1.77-.09-2.48a11.55,11.55,0,0,0-.27-1.8c-.26-1-.8-1.51-1.61-1.51-1,0-2,.73-2.77,2.19a13,13,0,0,0-1.26,6.33v8.34h2.26v.9h-8.52v-.9h2.45v-17h-2.45v-.9l6.26-.18v3.41a5.69,5.69,0,0,1,2.37-2.66,6.19,6.19,0,0,1,3-.79,3.6,3.6,0,0,1,3.41,1.84,11.33,11.33,0,0,1,1,5.39v10.93h2.3v.9Z"/><path class="cls-9" d="M138.52,234a4.39,4.39,0,0,1-3.2,1,4.49,4.49,0,0,1-2.81-.65,2.66,2.66,0,0,1-.86-2.26V216.7h-2.3v-1.08h2.3v-3l3.88-.94v4h3.38v1.08h-3.38V232a2.09,2.09,0,0,0,.29,1.22,1.39,1.39,0,0,0,1.08.36,1.81,1.81,0,0,0,1.4-.54,3.55,3.55,0,0,0,.83-1.37l.72.36A4.31,4.31,0,0,1,138.52,234Z"/><path class="cls-10" d="M156.68,234.46c-.72,0-1.2,0-1.44,0l-.86.09c-.34,0-.71.09-1.12.16v-3.24a7.16,7.16,0,0,1-2.48,2.66,5.54,5.54,0,0,1-2.91.83,3.65,3.65,0,0,1-3.2-1.55,7,7,0,0,1-1.15-4.2V216.52h-2.34v-.9l6.22-.15v14.89a6.9,6.9,0,0,0,.36,2.55,1.29,1.29,0,0,0,1.22.94c1.15,0,2.15-.71,3-2.12a10.22,10.22,0,0,0,1.26-5.18v-10h-2.7v-.9l6.58-.15v18.09h2.48v.9Z"/><path class="cls-11" d="M173.65,219.75h-.15c-1.17,0-1.79-.52-1.86-1.58l.14-1.19a.24.24,0,0,0-.07-.18h-.11l-.11,0c-.93,0-1.8,1-2.59,2.88a17.61,17.61,0,0,0-1.18,6.68v7.23H171v.9h-9.24v-.9h2.12v-17h-2.37v-.9l6.18-.18v4a9,9,0,0,1,2.38-3.06,4.67,4.67,0,0,1,2.84-1,2.84,2.84,0,0,1,2,.69,2.3,2.3,0,0,1,.75,1.72A1.78,1.78,0,0,1,173.65,219.75Z"/><path class="cls-12" d="M187.17,233.2a6,6,0,0,1-4.24,1.8c-1.8,0-3.39-.95-4.79-2.84a10.87,10.87,0,0,1-2.08-6.62,12,12,0,0,1,2.12-7.15,6.17,6.17,0,0,1,5.11-3,5.55,5.55,0,0,1,4.46,2.3,8.62,8.62,0,0,1,1.87,5.58c0,.14,0,.27,0,.38a1.45,1.45,0,0,1-.06.3.22.22,0,0,1-.25.25h-8.95v3.45a13.37,13.37,0,0,0,.72,4.9,2.45,2.45,0,0,0,2.44,1.72,4.06,4.06,0,0,0,3.56-2.23,15,15,0,0,0,1.14-2.21,10.08,10.08,0,0,0,.62-2.18h.9A10.61,10.61,0,0,1,187.17,233.2ZM185,217.38a2.07,2.07,0,0,0-1.94-1.26,2.05,2.05,0,0,0-2.16,1.66,16.89,16.89,0,0,0-.54,4.89v.64h5.21l.07-2.48A7.29,7.29,0,0,0,185,217.38Z"/><path class="cls-13" d="M208.67,221.84a12.24,12.24,0,0,1-6.9,1.73h-4.06v10h3.84v.9h-12v-.9h3.56V211.34h-3.56v-.9h12a13.44,13.44,0,0,1,7.12,1.58,5.46,5.46,0,0,1,2.52,4.93A5.57,5.57,0,0,1,208.67,221.84Zm-3.45-9.14a3.46,3.46,0,0,0-3.09-1.36h-4.42v11.33H202a3.54,3.54,0,0,0,3.17-1.44,7.71,7.71,0,0,0,1-4.39A7.43,7.43,0,0,0,205.22,212.7Z"/><path class="cls-14" d="M217.52,234.46v-.9h3.7l-2.12-6.36h-7.8l-2.23,6.36h3.67v.9h-7.63v-.9H208l8.6-23.66h1.26L226,233.56h2.84v.9Zm-2.19-18.19-3.63,10h7Z"/><path class="cls-15" d="M229.82,234.46v-.9h3.56V211.34h-3.56v-.9h11.69v.9H238v22.22h3.56v.9Zm14.06,0v-.9h3.74L238.34,222l10-10.68h-4.1v-.9h9v.9h-3.52l-7.84,8.23,11.47,14H255v.9Z"/></svg>