<svg id="Layer_1" data-name="Layer 1" xmlns="http://www.w3.org/2000/svg" xmlns:xlink="http://www.w3.org/1999/xlink" viewBox="0 0 150 30"><defs><style>.cls-1{fill:url(#linear-gradient);}.cls-2{fill:url(#linear-gradient-2);}.cls-3{fill:url(#linear-gradient-3);}.cls-4{fill:url(#linear-gradient-4);}.cls-5{fill:url(#linear-gradient-5);}.cls-6{fill:url(#linear-gradient-6);}.cls-7{fill:url(#linear-gradient-7);}.cls-8{fill:url(#linear-gradient-8);}.cls-9{fill:url(#linear-gradient-9);}.cls-10{fill:url(#linear-gradient-10);}.cls-11{fill:url(#linear-gradient-11);}.cls-12{fill:url(#linear-gradient-12);}.cls-13{fill:url(#linear-gradient-13);}.cls-14{fill:url(#linear-gradient-14);}.cls-15{fill:url(#linear-gradient-15);}</style><linearGradient id="linear-gradient" x1="1.74" y1="25.23" x2="25.79" y2="25.23" gradientUnits="userSpaceOnUse"><stop offset="0" stop-color="#226869"/><stop offset="0.66" stop-color="#3b8c73"/><stop offset="1" stop-color="#49a078"/></linearGradient><linearGradient id="linear-gradient-2" x1="1.74" y1="23.6" x2="25.79" y2="23.6" xlink:href="#linear-gradient"/><linearGradient id="linear-gradient-3" x1="1.74" y1="13.59" x2="25.79" y2="13.59" xlink:href="#linear-gradient"/><linearGradient id="linear-gradient-4" x1="145.96" y1="10.88" x2="69.69" y2="14.05" xlink:href="#linear-gradient"/><linearGradient id="linear-gradient-5" x1="145.98" y1="11.37" x2="69.71" y2="14.54" xlink:href="#linear-gradient"/><linearGradient id="linear-gradient-6" x1="146.05" y1="13.11" x2="69.78" y2="16.27" xlink:href="#linear-gradient"/><linearGradient id="linear-gradient-7" x1="146.07" y1="13.45" x2="69.79" y2="16.62" xlink:href="#linear-gradient"/><linearGradient id="linear-gradient-8" x1="146.08" y1="13.72" x2="69.81" y2="16.89" xlink:href="#linear-gradient"/><linearGradient id="linear-gradient-9" x1="146.06" y1="13.16" x2="69.78" y2="16.33" xlink:href="#linear-gradient"/><linearGradient id="linear-gradient-10" x1="146.11" y1="14.4" x2="69.83" y2="17.56" xlink:href="#linear-gradient"/><linearGradient id="linear-gradient-11" x1="146.12" y1="14.73" x2="69.85" y2="17.89" xlink:href="#linear-gradient"/><linearGradient id="linear-gradient-12" x1="146.14" y1="15.18" x2="69.87" y2="18.35" xlink:href="#linear-gradient"/><linearGradient id="linear-gradient-13" x1="146.09" y1="14.01" x2="69.82" y2="17.18" xlink:href="#linear-gradient"/><linearGradient id="linear-gradient-14" x1="146.11" y1="14.46" x2="69.84" y2="17.63" xlink:href="#linear-gradient"/><linearGradient id="linear-gradient-15" x1="146.13" y1="15.03" x2="69.86" y2="18.2" xlink:href="#linear-gradient"/></defs><path class="cls-1" d="M23,25.44A1.23,1.23,0,0,0,24,26a1.21,1.21,0,0,0,1-.54c.19-.22.28-.32.49-.32a.32.32,0,0,0,0-.64,1.21,1.21,0,0,0-1,.55c-.19.21-.28.32-.49.32s-.31-.11-.49-.32a1.23,1.23,0,0,0-1-.55,1.21,1.21,0,0,0-1,.55c-.18.21-.28.32-.49.32s-.31-.11-.49-.32a1.21,1.21,0,0,0-1-.55,1.23,1.23,0,0,0-1,.55c-.18.21-.28.32-.49.32s-.3-.11-.49-.32a1.21,1.21,0,0,0-1-.55,1.25,1.25,0,0,0-1,.55c-.18.21-.28.32-.48.32s-.31-.11-.49-.32a1.23,1.23,0,0,0-1-.55,1.21,1.21,0,0,0-1,.55c-.18.21-.28.32-.49.32s-.31-.11-.49-.32a1.21,1.21,0,0,0-1-.55,1.23,1.23,0,0,0-1,.55c-.18.21-.28.32-.49.32s-.3-.11-.49-.32a1.21,1.21,0,0,0-1-.55,1.25,1.25,0,0,0-1,.55c-.18.21-.28.32-.48.32S6.14,25.24,6,25a1.23,1.23,0,0,0-1-.55A1.21,1.21,0,0,0,4,25c-.19.21-.28.32-.49.32S3.21,25.24,3,25a1.21,1.21,0,0,0-1-.55.32.32,0,1,0,0,.64c.2,0,.3.1.48.32a1.24,1.24,0,0,0,1,.54,1.21,1.21,0,0,0,1-.54c.19-.22.28-.32.49-.32s.31.1.49.32a1.23,1.23,0,0,0,1,.54,1.21,1.21,0,0,0,1-.54c.18-.22.28-.32.49-.32s.31.1.49.32a1.21,1.21,0,0,0,1,.54,1.23,1.23,0,0,0,1-.54c.18-.22.28-.32.49-.32s.3.1.48.32a1.24,1.24,0,0,0,1,.54,1.21,1.21,0,0,0,1-.54c.19-.22.28-.32.49-.32s.31.1.49.32a1.23,1.23,0,0,0,1,.54,1.21,1.21,0,0,0,1-.54c.18-.22.28-.32.49-.32s.31.1.49.32a1.21,1.21,0,0,0,1,.54,1.23,1.23,0,0,0,1-.54c.18-.22.28-.32.49-.32s.3.1.49.32a1.21,1.21,0,0,0,1,.54,1.24,1.24,0,0,0,1-.54c.18-.22.28-.32.48-.32S22.85,25.22,23,25.44Z"/><path class="cls-2" d="M25.47,22.85a1.21,1.21,0,0,0-1,.54c-.19.22-.28.32-.49.32s-.31-.1-.49-.32a1.23,1.23,0,0,0-1-.54,1.21,1.21,0,0,0-1,.54c-.18.22-.28.32-.49.32s-.31-.1-.49-.32a1.21,1.21,0,0,0-1-.54,1.23,1.23,0,0,0-1,.54c-.18.22-.28.32-.49.32s-.3-.1-.49-.32a1.21,1.21,0,0,0-1-.54,1.24,1.24,0,0,0-1,.54c-.18.22-.28.32-.48.32s-.31-.1-.49-.32a1.23,1.23,0,0,0-1-.54,1.21,1.21,0,0,0-1,.54c-.18.22-.28.32-.49.32s-.31-.1-.49-.32a1.21,1.21,0,0,0-1-.54,1.23,1.23,0,0,0-1,.54c-.18.22-.28.32-.49.32s-.3-.1-.49-.32a1.21,1.21,0,0,0-1-.54,1.24,1.24,0,0,0-1,.54c-.18.22-.28.32-.48.32s-.31-.1-.49-.32a1.23,1.23,0,0,0-1-.54,1.21,1.21,0,0,0-1,.54c-.19.22-.28.32-.49.32s-.31-.1-.49-.32a1.21,1.21,0,0,0-1-.54.32.32,0,1,0,0,.63c.2,0,.3.11.48.32a1.25,1.25,0,0,0,1,.55,1.21,1.21,0,0,0,1-.55c.19-.21.28-.32.49-.32s.31.11.49.32a1.23,1.23,0,0,0,1,.55,1.21,1.21,0,0,0,1-.55c.18-.21.28-.32.49-.32s.31.11.49.32a1.21,1.21,0,0,0,1,.55,1.23,1.23,0,0,0,1-.55c.18-.21.28-.32.49-.32s.3.11.48.32a1.25,1.25,0,0,0,1,.55,1.21,1.21,0,0,0,1-.55c.19-.21.28-.32.49-.32s.31.11.49.32a1.23,1.23,0,0,0,1,.55,1.21,1.21,0,0,0,1-.55c.18-.21.28-.32.49-.32s.31.11.49.32a1.21,1.21,0,0,0,1,.55,1.23,1.23,0,0,0,1-.55c.18-.21.28-.32.49-.32s.3.11.49.32a1.21,1.21,0,0,0,1,.55,1.25,1.25,0,0,0,1-.55c.18-.21.28-.32.48-.32s.31.11.49.32a1.23,1.23,0,0,0,1,.55,1.21,1.21,0,0,0,1-.55c.19-.21.28-.32.49-.32a.32.32,0,1,0,0-.63Z"/><path class="cls-3" d="M25.7,4.56a.32.32,0,0,0-.23-.09H2.06a.32.32,0,0,0-.32.32V21.53a.32.32,0,0,0,.32.32c.2,0,.3.1.48.32a1.24,1.24,0,0,0,1,.54,1.21,1.21,0,0,0,1-.54c.19-.22.28-.32.49-.32s.31.1.49.32a1.23,1.23,0,0,0,1,.54,1.21,1.21,0,0,0,1-.54c.18-.22.28-.32.49-.32s.31.1.49.32a1.21,1.21,0,0,0,1,.54,1.23,1.23,0,0,0,1-.54c.18-.22.28-.32.49-.32s.3.1.48.32a1.24,1.24,0,0,0,1,.54,1.21,1.21,0,0,0,1-.54c.19-.22.28-.32.49-.32s.31.1.49.32a1.23,1.23,0,0,0,1,.54,1.21,1.21,0,0,0,1-.54c.18-.22.28-.32.49-.32s.31.1.49.32a1.21,1.21,0,0,0,1,.54,1.23,1.23,0,0,0,1-.54c.18-.22.28-.32.49-.32s.3.1.49.32a1.21,1.21,0,0,0,1,.54,1.24,1.24,0,0,0,1-.54c.18-.22.28-.32.48-.32s.31.1.49.32a1.23,1.23,0,0,0,1,.54,1.21,1.21,0,0,0,1-.54c.19-.22.28-.32.49-.32a.32.32,0,0,0,.32-.32.43.43,0,0,0,0-.11l0-16.63A.32.32,0,0,0,25.7,4.56Zm-.56,15.88L20.4,13.7V5.11h4.75ZM7.77,14.81l1.1,1.56L7.77,18Zm1.49,1L7.77,13.7V5.11h12V13.7l-1.5,2.12L14,9.79a.3.3,0,0,0-.26-.14.31.31,0,0,0-.26.14Zm6.2-2.88H14.1V11Zm-1.36.64h1.81l1.63,2.32H14.1Zm0,3H18l1.68,2.4H14.1Zm4.55-.16,1.11-1.56V18ZM7.13,5.11V13.7L2.37,20.47V5.11ZM4,21.76c-.19.21-.28.32-.49.32S3.21,22,3,21.76a1.55,1.55,0,0,0-.48-.43l4.58-6.52v4L5.41,21.3A.94.94,0,0,0,5,21.21,1.21,1.21,0,0,0,4,21.76Zm8.78,0c-.18.21-.28.32-.49.32s-.31-.11-.49-.32a1.21,1.21,0,0,0-1-.55,1.23,1.23,0,0,0-1,.55c-.18.21-.28.32-.49.32s-.3-.11-.49-.32a1.21,1.21,0,0,0-1-.55,1.25,1.25,0,0,0-1,.55c-.18.21-.28.32-.48.32S6.14,22,6,21.76l0-.06,1.8-2.57h0L13.47,11v10.3A1.31,1.31,0,0,0,12.79,21.76Zm8.29.32c-.21,0-.31-.11-.49-.32a1.21,1.21,0,0,0-1-.55,1.23,1.23,0,0,0-1,.55c-.18.21-.28.32-.49.32s-.3-.11-.49-.32a1.21,1.21,0,0,0-1-.55,1.25,1.25,0,0,0-1,.55c-.18.21-.28.32-.48.32s-.31-.11-.49-.32a1.44,1.44,0,0,0-.64-.5v-1.7h6l1.5,2.14-.05.06C21.39,22,21.29,22.08,21.08,22.08Zm3.42-.32c-.19.21-.28.32-.49.32s-.31-.11-.49-.32a1.21,1.21,0,0,0-1-.55,1,1,0,0,0-.43.09L20.4,18.85v-4L25,21.33A1.45,1.45,0,0,0,24.5,21.76Z"/><path class="cls-4" d="M42,21.53v-.47h1.95l-1.12-3.34H38.73l-1.17,3.34h1.92v.47h-4v-.47H37L41.5,8.64h.66l4.31,12.42H48v.47ZM40.84,12l-1.9,5.27H42.6Z"/><path class="cls-5" d="M55.79,21.53c-.31,0-.65,0-1,0a7.24,7.24,0,0,0-.88,0l-.57.07V20.23a2.88,2.88,0,0,1-1.13,1.24,3.05,3.05,0,0,1-1.38.34,2.85,2.85,0,0,1-2.44-1.47,6.6,6.6,0,0,1-1-3.66,6.05,6.05,0,0,1,1.09-3.61,3.13,3.13,0,0,1,2.57-1.54,2.46,2.46,0,0,1,1.21.32,2.42,2.42,0,0,1,1,1.26V9.39H52V8.92h1c.29,0,.53,0,.73,0l.73-.09,1-.15V21.06h1.38v.47ZM53.34,16a5.7,5.7,0,0,0-.68-2.93A1.91,1.91,0,0,0,51,11.9q-.66,0-1,.84a6.14,6.14,0,0,0-.33,2.2V18.4A6.16,6.16,0,0,0,50,20.59c.24.56.58.85,1,.85a1.89,1.89,0,0,0,1.57-1.12,4.57,4.57,0,0,0,.72-2.54Z"/><path class="cls-6" d="M64.16,12.11l-3,9.7h-.51l-3-9.7h-1v-.47h4.28v.47H59.7l1.89,6.59,2-6.59h-1.3v-.47h2.9v.47Z"/><path class="cls-7" d="M70.71,20.87a3.14,3.14,0,0,1-2.23.94A3.09,3.09,0,0,1,66,20.32a5.7,5.7,0,0,1-1.1-3.47A6.29,6.29,0,0,1,66,13.09a3.23,3.23,0,0,1,2.68-1.56A2.88,2.88,0,0,1,71,12.74a4.5,4.5,0,0,1,1,2.92,1.21,1.21,0,0,1,0,.2L72,16c0,.09,0,.13-.13.13h-4.7V18a6.83,6.83,0,0,0,.38,2.57,1.27,1.27,0,0,0,1.28.91,2.14,2.14,0,0,0,1.87-1.17,7.47,7.47,0,0,0,.59-1.16A5.13,5.13,0,0,0,71.57,18h.48A5.73,5.73,0,0,1,70.71,20.87Zm-1.16-8.31a1.07,1.07,0,0,0-1-.66,1.08,1.08,0,0,0-1.14.87,8.9,8.9,0,0,0-.28,2.57v.34h2.74l0-1.3A3.75,3.75,0,0,0,69.55,12.56Z"/><path class="cls-8" d="M77.46,21.53v-.47h1.19V15.25c0-.5,0-.93,0-1.31a8,8,0,0,0-.14-.94c-.14-.53-.43-.79-.85-.79s-1,.38-1.46,1.15a6.85,6.85,0,0,0-.66,3.32v4.38h1.19v.47H72.22v-.47H73.5V12.11H72.22v-.47l3.28-.09v1.79a3,3,0,0,1,1.25-1.4,3.25,3.25,0,0,1,1.56-.41,1.92,1.92,0,0,1,1.8,1,6,6,0,0,1,.53,2.83v5.74h1.2v.47Z"/><path class="cls-9" d="M86.81,21.29a3.13,3.13,0,0,1-3.15.18,1.36,1.36,0,0,1-.46-1.18V12.21H82v-.57H83.2V10.05l2-.49v2.08H87v.57H85.24v8a1.1,1.1,0,0,0,.15.64.71.71,0,0,0,.57.19,1,1,0,0,0,.73-.28,1.86,1.86,0,0,0,.44-.72l.38.19A2.36,2.36,0,0,1,86.81,21.29Z"/><path class="cls-10" d="M96.34,21.53c-.38,0-.63,0-.75,0l-.46.05c-.17,0-.37,0-.58.08V20a3.79,3.79,0,0,1-1.3,1.4,2.91,2.91,0,0,1-1.53.43A1.9,1.9,0,0,1,90,21a3.62,3.62,0,0,1-.61-2.21V12.11H88.21v-.47l3.26-.08v7.82a3.56,3.56,0,0,0,.19,1.34.68.68,0,0,0,.64.49,1.87,1.87,0,0,0,1.57-1.11,5.4,5.4,0,0,0,.66-2.72V12.11H93.11v-.47l3.46-.08v9.5h1.3v.47Z"/><path class="cls-11" d="M105.25,13.81h-.08c-.61,0-.94-.28-1-.83l.08-.62a.13.13,0,0,0,0-.1h-.11c-.49,0-1,.51-1.36,1.51a9.18,9.18,0,0,0-.62,3.52v3.79h1.69v.47H99v-.47h1.12V12.11H98.85v-.47l3.25-.09v2.09a4.77,4.77,0,0,1,1.24-1.6,2.44,2.44,0,0,1,1.49-.51,1.5,1.5,0,0,1,1.08.36,1.18,1.18,0,0,1,.4.9A.94.94,0,0,1,105.25,13.81Z"/><path class="cls-12" d="M112.35,20.87a3.14,3.14,0,0,1-2.23.94,3.1,3.1,0,0,1-2.51-1.49,5.7,5.7,0,0,1-1.1-3.47,6.36,6.36,0,0,1,1.12-3.76,3.23,3.23,0,0,1,2.68-1.56,2.88,2.88,0,0,1,2.34,1.21,4.5,4.5,0,0,1,1,2.92,1.21,1.21,0,0,1,0,.2.41.41,0,0,1,0,.16c0,.09,0,.13-.13.13h-4.7V18a7,7,0,0,0,.38,2.57,1.28,1.28,0,0,0,1.28.91,2.14,2.14,0,0,0,1.87-1.17,8.56,8.56,0,0,0,.6-1.16,6.45,6.45,0,0,0,.33-1.15h.47A5.65,5.65,0,0,1,112.35,20.87Zm-1.15-8.31a1.1,1.1,0,0,0-1-.66,1.08,1.08,0,0,0-1.14.87,9.27,9.27,0,0,0-.28,2.57v.34h2.74l0-1.3A4,4,0,0,0,111.2,12.56Z"/><path class="cls-13" d="M123.63,14.91a6.45,6.45,0,0,1-3.62.9h-2.13v5.25h2v.47h-6.29v-.47h1.87V9.39h-1.87V8.92h6.31a7,7,0,0,1,3.73.83A2.88,2.88,0,0,1,125,12.34,2.92,2.92,0,0,1,123.63,14.91Zm-1.81-4.8a1.81,1.81,0,0,0-1.62-.72h-2.32v5.95h2.24a1.86,1.86,0,0,0,1.67-.76,4.05,4.05,0,0,0,.52-2.3A3.85,3.85,0,0,0,121.82,10.11Z"/><path class="cls-14" d="M128.28,21.53v-.47h1.94l-1.11-3.34H125l-1.17,3.34h1.93v.47h-4v-.47h1.51l4.51-12.42h.66l4.3,12.42h1.49v.47ZM127.13,12l-1.91,5.27h3.66Z"/><path class="cls-15" d="M134.74,21.53v-.47h1.86V9.39h-1.86V8.92h6.13v.47H139V21.06h1.87v.47Zm7.38,0v-.47h2L139.21,15l5.27-5.61h-2.16V8.92h4.74v.47h-1.85l-4.11,4.33,6,7.34H148v.47Z"/></svg>