<svg id="Layer_1" data-name="Layer 1" xmlns="http://www.w3.org/2000/svg" xmlns:xlink="http://www.w3.org/1999/xlink" viewBox="0 0 300 60"><defs><style>.cls-1{fill:url(#linear-gradient);}.cls-2{fill:url(#linear-gradient-2);}.cls-3{fill:url(#linear-gradient-3);}.cls-4{fill:url(#linear-gradient-4);}.cls-5{fill:url(#linear-gradient-5);}.cls-6{fill:url(#linear-gradient-6);}.cls-7{fill:url(#linear-gradient-7);}.cls-8{fill:url(#linear-gradient-8);}.cls-9{fill:url(#linear-gradient-9);}.cls-10{fill:url(#linear-gradient-10);}.cls-11{fill:url(#linear-gradient-11);}.cls-12{fill:url(#linear-gradient-12);}.cls-13{fill:url(#linear-gradient-13);}.cls-14{fill:url(#linear-gradient-14);}.cls-15{fill:url(#linear-gradient-15);}</style><linearGradient id="linear-gradient" x1="1.88" y1="48.76" x2="50.52" y2="48.76" gradientUnits="userSpaceOnUse"><stop offset="0" stop-color="#226869"/><stop offset="0.66" stop-color="#3b8c73"/><stop offset="1" stop-color="#49a078"/></linearGradient><linearGradient id="linear-gradient-2" x1="1.88" y1="45.46" x2="50.52" y2="45.46" xlink:href="#linear-gradient"/><linearGradient id="linear-gradient-3" x1="1.88" y1="25.22" x2="50.52" y2="25.22" xlink:href="#linear-gradient"/><linearGradient id="linear-gradient-4" x1="293.53" y1="19.74" x2="139.29" y2="26.15" xlink:href="#linear-gradient"/><linearGradient id="linear-gradient-5" x1="293.57" y1="20.73" x2="139.33" y2="27.14" xlink:href="#linear-gradient"/><linearGradient id="linear-gradient-6" x1="293.71" y1="24.24" x2="139.48" y2="30.65" xlink:href="#linear-gradient"/><linearGradient id="linear-gradient-7" x1="293.74" y1="24.94" x2="139.5" y2="31.35" xlink:href="#linear-gradient"/><linearGradient id="linear-gradient-8" x1="293.76" y1="25.48" x2="139.53" y2="31.89" xlink:href="#linear-gradient"/><linearGradient id="linear-gradient-9" x1="293.72" y1="24.36" x2="139.48" y2="30.76" xlink:href="#linear-gradient"/><linearGradient id="linear-gradient-10" x1="293.82" y1="26.85" x2="139.58" y2="33.26" xlink:href="#linear-gradient"/><linearGradient id="linear-gradient-11" x1="293.85" y1="27.52" x2="139.61" y2="33.92" xlink:href="#linear-gradient"/><linearGradient id="linear-gradient-12" x1="293.89" y1="28.43" x2="139.65" y2="34.84" xlink:href="#linear-gradient"/><linearGradient id="linear-gradient-13" x1="293.79" y1="26.07" x2="139.55" y2="32.47" xlink:href="#linear-gradient"/><linearGradient id="linear-gradient-14" x1="293.83" y1="26.98" x2="139.59" y2="33.38" xlink:href="#linear-gradient"/><linearGradient id="linear-gradient-15" x1="293.87" y1="28.13" x2="139.64" y2="34.53" xlink:href="#linear-gradient"/></defs><path class="cls-1" d="M45,49.18a2.31,2.31,0,0,0,3.94,0c.37-.44.57-.65,1-.65a.65.65,0,0,0,0-1.29,2.45,2.45,0,0,0-2,1.11c-.37.44-.57.65-1,.65s-.62-.21-1-.65a2.3,2.3,0,0,0-3.94,0c-.37.44-.57.65-1,.65s-.62-.21-1-.65a2.3,2.3,0,0,0-3.94,0c-.37.44-.57.65-1,.65s-.62-.21-1-.65a2.3,2.3,0,0,0-3.94,0c-.37.44-.57.65-1,.65s-.62-.21-1-.65a2.3,2.3,0,0,0-3.94,0c-.37.44-.57.65-1,.65s-.62-.21-1-.65a2.3,2.3,0,0,0-3.94,0c-.37.44-.56.65-1,.65s-.61-.21-1-.65a2.48,2.48,0,0,0-2-1.11,2.49,2.49,0,0,0-2,1.11c-.36.44-.56.65-1,.65s-.62-.21-1-.65a2.45,2.45,0,0,0-2-1.11,2.45,2.45,0,0,0-2,1.11c-.37.44-.57.65-1,.65s-.62-.21-1-.65a2.45,2.45,0,0,0-2-1.11.65.65,0,1,0,0,1.29c.42,0,.62.21,1,.65a2.44,2.44,0,0,0,2,1.1,2.44,2.44,0,0,0,2-1.1c.37-.44.56-.65,1-.65s.62.21,1,.65a2.44,2.44,0,0,0,2,1.1,2.46,2.46,0,0,0,2-1.1c.37-.44.56-.65,1-.65s.61.21,1,.65a2.32,2.32,0,0,0,4,0c.37-.44.56-.65,1-.65s.62.21,1,.65a2.31,2.31,0,0,0,3.94,0c.37-.44.57-.65,1-.65s.62.21,1,.65a2.31,2.31,0,0,0,3.94,0c.37-.44.57-.65,1-.65s.62.21,1,.65a2.31,2.31,0,0,0,3.94,0c.37-.44.57-.65,1-.65s.62.21,1,.65a2.31,2.31,0,0,0,3.94,0c.37-.44.57-.65,1-.65S44.58,48.74,45,49.18Z"/><path class="cls-2" d="M49.88,43.94a2.44,2.44,0,0,0-2,1.1c-.37.44-.57.65-1,.65s-.62-.21-1-.65A2.31,2.31,0,0,0,42,45c-.37.44-.57.65-1,.65s-.62-.21-1-.65a2.31,2.31,0,0,0-3.94,0c-.37.44-.57.65-1,.65s-.62-.21-1-.65a2.31,2.31,0,0,0-3.94,0c-.37.44-.57.65-1,.65s-.62-.21-1-.65a2.31,2.31,0,0,0-3.94,0c-.37.44-.57.65-1,.65s-.62-.21-1-.65a2.31,2.31,0,0,0-3.94,0c-.37.44-.56.65-1,.65s-.61-.21-1-.65a2.48,2.48,0,0,0-2-1.1,2.48,2.48,0,0,0-2,1.1c-.37.44-.56.65-1,.65s-.62-.21-1-.65a2.44,2.44,0,0,0-2-1.1,2.44,2.44,0,0,0-2,1.1c-.37.44-.57.65-1,.65s-.62-.21-1-.65a2.44,2.44,0,0,0-2-1.1.64.64,0,1,0,0,1.28c.42,0,.62.21,1,.65a2.45,2.45,0,0,0,2,1.11,2.45,2.45,0,0,0,2-1.11c.37-.44.56-.65,1-.65s.62.21,1,.65a2.45,2.45,0,0,0,2,1.11,2.47,2.47,0,0,0,2-1.11c.37-.44.56-.65,1-.65s.61.21,1,.65a2.48,2.48,0,0,0,2,1.11,2.49,2.49,0,0,0,2-1.11c.37-.44.56-.65,1-.65s.62.21,1,.65a2.3,2.3,0,0,0,3.94,0c.37-.44.57-.65,1-.65s.62.21,1,.65a2.3,2.3,0,0,0,3.94,0c.37-.44.57-.65,1-.65s.62.21,1,.65a2.3,2.3,0,0,0,3.94,0c.37-.44.57-.65,1-.65s.62.21,1,.65a2.3,2.3,0,0,0,3.94,0c.37-.44.57-.65,1-.65s.62.21,1,.65a2.3,2.3,0,0,0,3.94,0c.37-.44.57-.65,1-.65a.64.64,0,1,0,0-1.28Z"/><path class="cls-3" d="M50.34,7a.63.63,0,0,0-.46-.19H2.53a.64.64,0,0,0-.65.64V41.15s0,0,0,.06,0,0,0,.06a.65.65,0,0,0,.65.65c.42,0,.62.21,1,.64a2.45,2.45,0,0,0,2,1.11,2.45,2.45,0,0,0,2-1.11c.37-.43.56-.64,1-.64s.62.21,1,.64a2.45,2.45,0,0,0,2,1.11,2.47,2.47,0,0,0,2-1.11c.37-.43.56-.64,1-.64s.61.21,1,.64a2.48,2.48,0,0,0,2,1.11,2.49,2.49,0,0,0,2-1.11c.37-.43.56-.64,1-.64s.62.21,1,.64a2.3,2.3,0,0,0,3.94,0c.37-.43.57-.64,1-.64s.62.21,1,.64a2.3,2.3,0,0,0,3.94,0c.37-.43.57-.64,1-.64s.62.21,1,.64a2.3,2.3,0,0,0,3.94,0c.37-.43.57-.64,1-.64s.62.21,1,.64a2.3,2.3,0,0,0,3.94,0c.37-.43.57-.64,1-.64s.62.21,1,.64a2.3,2.3,0,0,0,3.94,0c.37-.43.57-.64,1-.64a.64.64,0,0,0,.64-.65.76.76,0,0,0,0-.21l0-33.64A.63.63,0,0,0,50.34,7ZM49.2,39.08,39.62,25.45V8.06h9.62ZM14.08,27.68l2.24,3.17L14.08,34Zm3,2.05-3-4.28V8.06H38.33V25.45l-3,4.28-8.57-12.2a.65.65,0,0,0-.53-.27.63.63,0,0,0-.52.27ZM29.64,23.9H26.89V20Zm-2.75,1.29h3.65l3.3,4.7h-7Zm0,6h7.85L38.15,36H26.89Zm9.2-.32,2.24-3.17V34ZM12.79,8.06V25.45L3.17,39.13V8.06ZM6.48,41.73c-.37.44-.57.65-1,.65s-.62-.21-1-.65a3.44,3.44,0,0,0-1-.86l9.26-13.18v8.17l-3.47,5a2.11,2.11,0,0,0-.87-.18A2.47,2.47,0,0,0,6.48,41.73Zm17.75,0c-.37.44-.57.65-1,.65s-.62-.21-1-.65a2.31,2.31,0,0,0-3.94,0c-.37.44-.56.65-1,.65s-.61-.21-1-.65a2.5,2.5,0,0,0-2-1.1,2.51,2.51,0,0,0-2,1.1c-.37.44-.56.65-1,.65s-.62-.21-1-.65l-.1-.11L14,36.43h0L25.6,19.88V40.71A2.8,2.8,0,0,0,24.23,41.73ZM41,42.38c-.42,0-.62-.21-1-.65a2.31,2.31,0,0,0-3.94,0c-.37.44-.57.65-1,.65s-.62-.21-1-.65a2.31,2.31,0,0,0-3.94,0c-.37.44-.57.65-1,.65s-.62-.21-1-.65a2.83,2.83,0,0,0-1.28-1V37.3H39.05l3,4.32-.1.11C41.62,42.17,41.42,42.38,41,42.38Zm6.91-.65c-.37.44-.57.65-1,.65s-.62-.21-1-.65a2.47,2.47,0,0,0-2-1.1,2.28,2.28,0,0,0-.87.17l-3.47-4.94V27.69l9.26,13.18A3.44,3.44,0,0,0,47.91,41.73Z"/><path class="cls-4" d="M83.29,41.28v-1h3.93L85,33.57H76.69l-2.37,6.75h3.89v1H70.12v-1h3L82.3,15.21h1.33l8.71,25.11h3v1ZM81,22,77.11,32.61h7.4Z"/><path class="cls-5" d="M111.19,41.28c-.64,0-1.31,0-2,.08s-1.31,0-1.8.07-.86.1-1.14.15V38.65a5.89,5.89,0,0,1-2.29,2.51,6.18,6.18,0,0,1-2.79.69,5.75,5.75,0,0,1-4.92-3,13.36,13.36,0,0,1-2-7.41,12.1,12.1,0,0,1,2.21-7.29q2.22-3.13,5.2-3.13a5.19,5.19,0,0,1,2.44.65,5,5,0,0,1,2.06,2.55V16.74h-2.75v-1c.74,0,1.4,0,2,0l1.47,0,1.47-.2c.57-.07,1.23-.17,2-.3V40.32h2.79v1Zm-5-11.18a11.35,11.35,0,0,0-1.38-5.92c-.88-1.58-2-2.37-3.31-2.37-.9,0-1.56.56-2,1.68A12.2,12.2,0,0,0,98.86,28v7a12,12,0,0,0,.69,4.43c.48,1.15,1.17,1.72,2.06,1.72,1.2,0,2.25-.75,3.17-2.25a9.29,9.29,0,0,0,1.45-5.16Z"/><path class="cls-6" d="M128.1,22.23,122,41.85h-1l-6.15-19.62h-1.94v-.95h8.66v.95h-2.41l3.82,13.32,4-13.32h-2.63v-.95h5.87v.95Z"/><path class="cls-7" d="M141.35,39.94a6.32,6.32,0,0,1-4.51,1.91c-1.9,0-3.6-1-5.07-3a11.53,11.53,0,0,1-2.22-7,12.76,12.76,0,0,1,2.25-7.59,6.55,6.55,0,0,1,5.42-3.17A5.87,5.87,0,0,1,142,23.49a9.1,9.1,0,0,1,2,5.92,2.49,2.49,0,0,1,0,.4,3.06,3.06,0,0,1,0,.32.24.24,0,0,1-.27.27h-9.5v3.67a14.15,14.15,0,0,0,.76,5.19,2.6,2.6,0,0,0,2.59,1.83,4.33,4.33,0,0,0,3.78-2.37,14.92,14.92,0,0,0,1.2-2.35,10.14,10.14,0,0,0,.67-2.3h1A11.37,11.37,0,0,1,141.35,39.94ZM139,23.15A2.21,2.21,0,0,0,137,21.81a2.18,2.18,0,0,0-2.29,1.76,18.08,18.08,0,0,0-.57,5.19v.69h5.53l.08-2.64A7.82,7.82,0,0,0,139,23.15Z"/><path class="cls-8" d="M155,41.28v-1h2.4V28.57c0-1,0-1.87-.1-2.64A12.74,12.74,0,0,0,157,24c-.28-1.07-.85-1.61-1.72-1.61-1.1,0-2.08.78-2.94,2.33A13.85,13.85,0,0,0,151,31.47v8.85h2.41v1h-9v-1H147V22.23h-2.6v-.95l6.64-.19v3.62a6.08,6.08,0,0,1,2.52-2.82,6.51,6.51,0,0,1,3.17-.84A3.85,3.85,0,0,1,160.36,23a12,12,0,0,1,1.07,5.72v11.6h2.44v1Z"/><path class="cls-9" d="M173.91,40.78a4.62,4.62,0,0,1-3.4,1.07,4.83,4.83,0,0,1-3-.69,2.8,2.8,0,0,1-.91-2.4V22.42h-2.45V21.28h2.45V18.07l4.12-1v4.2h3.59v1.14h-3.59V38.68A2.25,2.25,0,0,0,171,40a1.46,1.46,0,0,0,1.15.38,2,2,0,0,0,1.49-.57,3.81,3.81,0,0,0,.88-1.45l.76.38A4.64,4.64,0,0,1,173.91,40.78Z"/><path class="cls-10" d="M193.19,41.28c-.77,0-1.28,0-1.53,0l-.92.09c-.35,0-.75.1-1.18.17V38.15A7.62,7.62,0,0,1,186.93,41a5.85,5.85,0,0,1-3.1.88,3.87,3.87,0,0,1-3.39-1.64,7.4,7.4,0,0,1-1.22-4.47V22.23h-2.49v-.95l6.61-.16V36.93a7.51,7.51,0,0,0,.38,2.71,1.38,1.38,0,0,0,1.3,1c1.22,0,2.27-.75,3.17-2.25a10.87,10.87,0,0,0,1.33-5.5V22.23h-2.86v-.95l7-.16v19.2h2.64v1Z"/><path class="cls-11" d="M211.2,25.67h-.15c-1.25,0-1.91-.56-2-1.68l.15-1.26a.25.25,0,0,0-.07-.19l-.12,0-.11,0c-1,0-1.91,1-2.75,3.05a18.7,18.7,0,0,0-1.26,7.1v7.67h3.44v1h-9.81v-1h2.25V22.23h-2.52v-.95l6.57-.19v4.23a9.53,9.53,0,0,1,2.52-3.24,4.88,4.88,0,0,1,3-1,3.07,3.07,0,0,1,2.18.72,2.46,2.46,0,0,1,.8,1.84A1.9,1.9,0,0,1,211.2,25.67Z"/><path class="cls-12" d="M225.55,39.94a6.28,6.28,0,0,1-4.5,1.91q-2.87,0-5.08-3a11.52,11.52,0,0,1-2.21-7A12.76,12.76,0,0,1,216,24.22a6.55,6.55,0,0,1,5.42-3.17,5.85,5.85,0,0,1,4.73,2.44,9.11,9.11,0,0,1,2,5.92c0,.15,0,.28,0,.4a1.65,1.65,0,0,1-.06.32.24.24,0,0,1-.27.27h-9.5v3.67a14.15,14.15,0,0,0,.76,5.19,2.62,2.62,0,0,0,2.6,1.83,4.33,4.33,0,0,0,3.78-2.37,16.84,16.84,0,0,0,1.2-2.35,10.68,10.68,0,0,0,.67-2.3h.95A11.21,11.21,0,0,1,225.55,39.94Zm-2.33-16.79a2.32,2.32,0,0,0-4.35.42,18.08,18.08,0,0,0-.57,5.19v.69h5.53l.08-2.64A7.58,7.58,0,0,0,223.22,23.15Z"/><path class="cls-13" d="M248.38,27.88a13.07,13.07,0,0,1-7.33,1.83h-4.31V40.32h4.08v1H228.11v-1h3.78V16.74h-3.78v-1h12.75q4.88,0,7.56,1.68a5.8,5.8,0,0,1,2.67,5.23A5.91,5.91,0,0,1,248.38,27.88Zm-3.67-9.69a3.67,3.67,0,0,0-3.28-1.45h-4.69v12h4.54a3.76,3.76,0,0,0,3.36-1.53,8.19,8.19,0,0,0,1.07-4.65A7.83,7.83,0,0,0,244.71,18.19Z"/><path class="cls-14" d="M257.77,41.28v-1h3.93l-2.25-6.75h-8.29l-2.36,6.75h3.89v1H244.6v-1h3.05l9.13-25.11h1.33l8.7,25.11h3v1ZM255.44,22l-3.86,10.64H259Z"/><path class="cls-15" d="M270.82,41.28v-1h3.78V16.74h-3.78v-1h12.41v1h-3.78V40.32h3.78v1Zm14.93,0v-1h4l-9.85-12.25,10.65-11.33h-4.35v-1h9.58v1H292l-8.32,8.74,12.17,14.84h1.72v1Z"/></svg>