<svg id="Layer_1" data-name="Layer 1" xmlns="http://www.w3.org/2000/svg" viewBox="0 0 191.87 172.19"><defs><style>.cls-1{fill:#fff;}</style></defs><path class="cls-1" d="M169.88,167.83c1.55,1.84,3.68,4.36,7.78,4.36s6.22-2.52,7.78-4.36,2.23-2.57,3.89-2.57a2.55,2.55,0,0,0,0-5.09c-4.09,0-6.22,2.52-7.77,4.37s-2.24,2.56-3.9,2.56-2.44-.83-3.9-2.56-3.68-4.37-7.78-4.37-6.23,2.52-7.78,4.37-2.23,2.56-3.9,2.56-2.44-.83-3.9-2.56-3.67-4.37-7.77-4.37-6.23,2.52-7.78,4.37-2.23,2.56-3.9,2.56-2.44-.83-3.9-2.56-3.68-4.37-7.77-4.37-6.23,2.52-7.78,4.37-2.23,2.56-3.9,2.56-2.44-.83-3.9-2.56-3.67-4.37-7.77-4.37-6.23,2.52-7.78,4.37-2.23,2.56-3.9,2.56-2.44-.83-3.89-2.56-3.68-4.37-7.78-4.37-6.22,2.52-7.78,4.37-2.23,2.56-3.89,2.56-2.44-.83-3.9-2.56-3.68-4.37-7.77-4.37-6.23,2.52-7.78,4.37-2.23,2.56-3.9,2.56-2.44-.83-3.89-2.56-3.68-4.37-7.78-4.37-6.23,2.52-7.78,4.37-2.23,2.56-3.9,2.56-2.44-.83-3.89-2.56-3.68-4.37-7.78-4.37a2.55,2.55,0,0,0,0,5.09c1.67,0,2.44.83,3.9,2.57s3.68,4.36,7.77,4.36,6.23-2.52,7.78-4.36,2.23-2.57,3.9-2.57,2.44.83,3.9,2.57,3.67,4.36,7.77,4.36,6.23-2.52,7.78-4.36,2.23-2.57,3.9-2.57,2.43.83,3.89,2.57,3.68,4.36,7.78,4.36,6.22-2.52,7.77-4.36,2.24-2.57,3.9-2.57,2.44.83,3.9,2.57,3.68,4.36,7.77,4.36,6.23-2.52,7.78-4.36,2.23-2.57,3.9-2.57,2.44.83,3.89,2.57,3.68,4.36,7.78,4.36,6.23-2.52,7.78-4.36,2.23-2.57,3.9-2.57,2.44.84,3.89,2.57,3.68,4.36,7.78,4.36,6.23-2.52,7.78-4.36,2.23-2.57,3.9-2.57,2.44.83,3.89,2.57,3.68,4.36,7.78,4.36,6.23-2.52,7.78-4.36,2.23-2.57,3.9-2.57S168.42,166.1,169.88,167.83Z"/><path class="cls-1" d="M189.33,147.07c-4.09,0-6.22,2.53-7.77,4.37s-2.24,2.57-3.9,2.57-2.44-.84-3.9-2.57-3.68-4.37-7.78-4.37-6.23,2.53-7.78,4.37S156,154,154.3,154s-2.44-.84-3.9-2.57-3.67-4.37-7.77-4.37-6.23,2.53-7.78,4.37S132.62,154,131,154s-2.44-.84-3.9-2.57-3.68-4.37-7.77-4.37-6.23,2.53-7.78,4.37-2.23,2.57-3.9,2.57-2.44-.84-3.9-2.57-3.67-4.37-7.77-4.37-6.23,2.53-7.78,4.37S85.92,154,84.25,154s-2.44-.84-3.89-2.57-3.68-4.37-7.78-4.37-6.22,2.53-7.78,4.37S62.57,154,60.91,154s-2.44-.84-3.9-2.57-3.68-4.37-7.77-4.37-6.23,2.53-7.78,4.37S39.23,154,37.56,154s-2.44-.84-3.89-2.57-3.68-4.37-7.78-4.37-6.23,2.53-7.78,4.37S15.88,154,14.21,154s-2.44-.84-3.89-2.57-3.68-4.37-7.78-4.37a2.55,2.55,0,0,0,0,5.1c1.67,0,2.44.83,3.9,2.56s3.68,4.37,7.77,4.37,6.23-2.52,7.78-4.37,2.23-2.56,3.9-2.56,2.44.83,3.9,2.56,3.67,4.37,7.77,4.37,6.23-2.52,7.78-4.37,2.23-2.56,3.9-2.56,2.43.83,3.89,2.56,3.68,4.37,7.78,4.37,6.22-2.52,7.77-4.37,2.24-2.56,3.9-2.56,2.44.83,3.9,2.56,3.68,4.37,7.77,4.37,6.23-2.52,7.78-4.37,2.23-2.56,3.9-2.56,2.44.83,3.89,2.56,3.68,4.37,7.78,4.37,6.23-2.52,7.78-4.37,2.23-2.56,3.9-2.56,2.44.83,3.89,2.56,3.68,4.37,7.78,4.37,6.23-2.52,7.78-4.37,2.23-2.56,3.9-2.56,2.44.83,3.89,2.56,3.68,4.37,7.78,4.37,6.23-2.52,7.78-4.37,2.23-2.56,3.9-2.56,2.44.83,3.9,2.56,3.68,4.37,7.78,4.37,6.22-2.52,7.78-4.37,2.23-2.56,3.89-2.56a2.55,2.55,0,0,0,0-5.1Z"/><path class="cls-1" d="M191.13.75a2.54,2.54,0,0,0-1.8-.75H2.54A2.55,2.55,0,0,0,0,2.55V136c0,.09,0,.17,0,.25s0,.16,0,.25a2.55,2.55,0,0,0,2.54,2.55c1.67,0,2.44.83,3.9,2.56S10.12,146,14.21,146s6.23-2.53,7.78-4.37,2.23-2.56,3.9-2.56,2.44.83,3.9,2.56S33.46,146,37.56,146s6.23-2.53,7.78-4.37,2.23-2.56,3.9-2.56,2.43.83,3.89,2.56S56.81,146,60.91,146s6.22-2.53,7.77-4.37,2.24-2.56,3.9-2.56,2.44.83,3.9,2.56S80.16,146,84.25,146s6.23-2.53,7.78-4.37,2.23-2.56,3.9-2.56,2.44.83,3.89,2.56S103.5,146,107.6,146s6.23-2.53,7.78-4.37,2.23-2.56,3.9-2.56,2.44.83,3.89,2.56S126.85,146,131,146s6.23-2.53,7.78-4.37,2.23-2.56,3.9-2.56,2.44.83,3.89,2.56S150.2,146,154.3,146s6.23-2.53,7.78-4.37,2.23-2.56,3.9-2.56,2.44.83,3.9,2.56,3.68,4.37,7.78,4.37,6.22-2.53,7.78-4.37,2.23-2.56,3.89-2.56a2.52,2.52,0,0,0,2.39-3.38l.15-133.15A2.48,2.48,0,0,0,191.13.75Zm-4.48,127.11-37.8-53.94V5.1h37.94ZM48.1,82.74l8.83,12.53L48.1,107.88ZM60,90.85,48.1,73.91V5.1h95.67V73.91L131.84,90.84,98,42.57a2.53,2.53,0,0,0-4.15,0Zm49.44-23.06H98.64V52.33ZM98.64,72.88h14.09a2.85,2.85,0,0,0,.29,0l13,18.59H98.64Zm0,23.66h31l13.43,19.17H98.64Zm36.3-1.27,8.83-12.53v25.14ZM43,5.1V73.92L5.08,128.06V5.1ZM18.11,138.35c-1.46,1.73-2.23,2.56-3.9,2.56s-2.44-.83-3.89-2.56a13.22,13.22,0,0,0-3.84-3.42L43,82.78v32.35l-13.7,19.55a8.31,8.31,0,0,0-3.43-.7C21.79,134,19.66,136.51,18.11,138.35Zm70,0c-1.46,1.73-2.23,2.56-3.9,2.56s-2.44-.83-3.89-2.56S76.68,134,72.58,134s-6.22,2.53-7.78,4.37-2.23,2.56-3.89,2.56-2.44-.83-3.9-2.56S53.33,134,49.24,134s-6.23,2.53-7.78,4.37-2.23,2.56-3.9,2.56-2.44-.83-3.89-2.56l-.39-.46,14.39-20.53h0l45.89-65.5V134.3A11.07,11.07,0,0,0,88.15,138.35Zm66.15,2.56c-1.66,0-2.44-.83-3.9-2.56s-3.67-4.37-7.77-4.37-6.23,2.53-7.78,4.37-2.23,2.56-3.9,2.56-2.44-.83-3.9-2.56-3.68-4.37-7.77-4.37-6.23,2.53-7.78,4.37-2.23,2.56-3.9,2.56-2.44-.83-3.9-2.56a11.24,11.24,0,0,0-5.06-3.95V120.8h48l12,17.09-.39.46C156.74,140.08,156,140.91,154.3,140.91Zm27.26-2.56c-1.46,1.73-2.24,2.56-3.9,2.56s-2.44-.83-3.9-2.56S170.08,134,166,134a8.31,8.31,0,0,0-3.43.7l-13.7-19.55V82.78l36.54,52.15A13,13,0,0,0,181.56,138.35Z"/></svg>