<svg id="Layer_1" data-name="Layer 1" xmlns="http://www.w3.org/2000/svg" xmlns:xlink="http://www.w3.org/1999/xlink" viewBox="0 0 150 119"><defs><style>.cls-1{fill:url(#linear-gradient);}.cls-2{fill:url(#linear-gradient-2);}.cls-3{fill:url(#linear-gradient-3);}.cls-4{fill:url(#linear-gradient-4);}.cls-5{fill:url(#linear-gradient-5);}.cls-6{fill:url(#linear-gradient-6);}.cls-7{fill:url(#linear-gradient-7);}.cls-8{fill:url(#linear-gradient-8);}.cls-9{fill:url(#linear-gradient-9);}.cls-10{fill:url(#linear-gradient-10);}.cls-11{fill:url(#linear-gradient-11);}.cls-12{fill:url(#linear-gradient-12);}.cls-13{fill:url(#linear-gradient-13);}.cls-14{fill:url(#linear-gradient-14);}.cls-15{fill:url(#linear-gradient-15);}</style><linearGradient id="linear-gradient" x1="23.25" y1="90.47" x2="126.75" y2="90.47" gradientUnits="userSpaceOnUse"><stop offset="0" stop-color="#226869"/><stop offset="0.66" stop-color="#3b8c73"/><stop offset="1" stop-color="#49a078"/></linearGradient><linearGradient id="linear-gradient-2" x1="23.25" y1="83.43" x2="126.75" y2="83.43" xlink:href="#linear-gradient"/><linearGradient id="linear-gradient-3" x1="23.25" y1="40.38" x2="126.75" y2="40.38" xlink:href="#linear-gradient"/><linearGradient id="linear-gradient-4" x1="124.91" y1="105.97" x2="54.76" y2="108.88" xlink:href="#linear-gradient"/><linearGradient id="linear-gradient-5" x1="124.92" y1="106.42" x2="54.78" y2="109.33" xlink:href="#linear-gradient"/><linearGradient id="linear-gradient-6" x1="124.99" y1="108.01" x2="54.84" y2="110.93" xlink:href="#linear-gradient"/><linearGradient id="linear-gradient-7" x1="125" y1="108.33" x2="54.86" y2="111.25" xlink:href="#linear-gradient"/><linearGradient id="linear-gradient-8" x1="125.01" y1="108.58" x2="54.87" y2="111.49" xlink:href="#linear-gradient"/><linearGradient id="linear-gradient-9" x1="124.99" y1="108.07" x2="54.85" y2="110.98" xlink:href="#linear-gradient"/><linearGradient id="linear-gradient-10" x1="125.04" y1="109.2" x2="54.89" y2="112.11" xlink:href="#linear-gradient"/><linearGradient id="linear-gradient-11" x1="125.05" y1="109.5" x2="54.91" y2="112.42" xlink:href="#linear-gradient"/><linearGradient id="linear-gradient-12" x1="125.07" y1="109.92" x2="54.92" y2="112.83" xlink:href="#linear-gradient"/><linearGradient id="linear-gradient-13" x1="125.03" y1="108.84" x2="54.88" y2="111.76" xlink:href="#linear-gradient"/><linearGradient id="linear-gradient-14" x1="125.04" y1="109.26" x2="54.9" y2="112.17" xlink:href="#linear-gradient"/><linearGradient id="linear-gradient-15" x1="125.06" y1="109.78" x2="54.92" y2="112.69" xlink:href="#linear-gradient"/></defs><path class="cls-1" d="M114.89,91.36a4.92,4.92,0,0,0,8.39,0c.78-.93,1.2-1.38,2.1-1.38a1.37,1.37,0,0,0,0-2.74,5.27,5.27,0,0,0-4.2,2.35c-.78.93-1.2,1.38-2.1,1.38s-1.32-.45-2.1-1.38a4.92,4.92,0,0,0-8.39,0c-.79.93-1.21,1.38-2.11,1.38s-1.31-.45-2.1-1.38a4.92,4.92,0,0,0-8.39,0c-.79.93-1.2,1.38-2.1,1.38s-1.32-.45-2.11-1.38a4.92,4.92,0,0,0-8.39,0c-.78.93-1.2,1.38-2.1,1.38s-1.31-.45-2.1-1.38a4.92,4.92,0,0,0-8.39,0C70,90.52,69.6,91,68.7,91s-1.32-.45-2.1-1.38a4.92,4.92,0,0,0-8.39,0C57.42,90.52,57,91,56.1,91s-1.31-.45-2.1-1.38a4.92,4.92,0,0,0-8.39,0c-.78.93-1.2,1.38-2.1,1.38s-1.31-.45-2.1-1.38a5.27,5.27,0,0,0-4.2-2.35A5.25,5.25,0,0,0,33,89.59c-.79.93-1.2,1.38-2.1,1.38s-1.32-.45-2.1-1.38a5.27,5.27,0,0,0-4.2-2.35,1.37,1.37,0,1,0,0,2.74c.9,0,1.32.45,2.1,1.38a5.27,5.27,0,0,0,4.2,2.35,5.25,5.25,0,0,0,4.19-2.35c.79-.93,1.21-1.38,2.1-1.38s1.32.45,2.11,1.38a4.92,4.92,0,0,0,8.39,0c.78-.93,1.2-1.38,2.1-1.38s1.31.45,2.1,1.38a4.92,4.92,0,0,0,8.39,0c.79-.93,1.2-1.38,2.1-1.38s1.32.45,2.1,1.38a4.92,4.92,0,0,0,8.39,0C73.68,90.43,74.1,90,75,90s1.32.45,2.11,1.38a4.92,4.92,0,0,0,8.39,0c.78-.93,1.2-1.38,2.1-1.38s1.32.45,2.1,1.38a4.92,4.92,0,0,0,8.39,0c.79-.93,1.21-1.38,2.11-1.38s1.31.45,2.1,1.38a4.92,4.92,0,0,0,8.39,0c.79-.93,1.2-1.38,2.1-1.38S114.1,90.43,114.89,91.36Z"/><path class="cls-2" d="M125.38,80.2a5.27,5.27,0,0,0-4.2,2.35c-.78.93-1.2,1.38-2.1,1.38s-1.32-.45-2.1-1.38a4.92,4.92,0,0,0-8.39,0c-.79.93-1.21,1.38-2.11,1.38s-1.31-.45-2.1-1.38a4.92,4.92,0,0,0-8.39,0c-.79.93-1.2,1.38-2.1,1.38s-1.32-.45-2.11-1.38a4.92,4.92,0,0,0-8.39,0c-.78.93-1.2,1.38-2.1,1.38s-1.31-.45-2.1-1.38a4.92,4.92,0,0,0-8.39,0c-.79.93-1.2,1.38-2.1,1.38s-1.32-.45-2.1-1.38a4.92,4.92,0,0,0-8.39,0c-.79.93-1.21,1.38-2.11,1.38s-1.31-.45-2.1-1.38a4.92,4.92,0,0,0-8.39,0c-.78.93-1.2,1.38-2.1,1.38s-1.31-.45-2.1-1.38a5.27,5.27,0,0,0-4.2-2.35A5.25,5.25,0,0,0,33,82.55c-.79.93-1.2,1.38-2.1,1.38s-1.32-.45-2.1-1.38a5.27,5.27,0,0,0-4.2-2.35,1.37,1.37,0,1,0,0,2.74c.9,0,1.32.45,2.1,1.38a5.27,5.27,0,0,0,4.2,2.35,5.25,5.25,0,0,0,4.19-2.35c.79-.93,1.21-1.38,2.1-1.38s1.32.45,2.11,1.38a4.92,4.92,0,0,0,8.39,0c.78-.93,1.2-1.38,2.1-1.38s1.31.45,2.1,1.38a4.92,4.92,0,0,0,8.39,0c.79-.93,1.2-1.38,2.1-1.38s1.32.45,2.1,1.38a4.92,4.92,0,0,0,8.39,0c.79-.93,1.21-1.38,2.1-1.38s1.32.45,2.11,1.38a4.92,4.92,0,0,0,8.39,0c.78-.93,1.2-1.38,2.1-1.38s1.32.45,2.1,1.38a4.92,4.92,0,0,0,8.39,0c.79-.93,1.21-1.38,2.11-1.38s1.31.45,2.1,1.38a4.92,4.92,0,0,0,8.39,0c.79-.93,1.2-1.38,2.1-1.38s1.32.45,2.11,1.38a4.92,4.92,0,0,0,8.39,0c.78-.93,1.2-1.38,2.1-1.38a1.37,1.37,0,1,0,0-2.74Z"/><path class="cls-3" d="M126.35,1.53a1.37,1.37,0,0,0-1-.4H24.62A1.37,1.37,0,0,0,23.25,2.5V74.26s0,.09,0,.14,0,.09,0,.13a1.37,1.37,0,0,0,1.37,1.37c.9,0,1.32.45,2.1,1.38a5.27,5.27,0,0,0,4.2,2.35,5.25,5.25,0,0,0,4.19-2.35c.79-.93,1.21-1.38,2.1-1.38s1.32.45,2.11,1.38a4.92,4.92,0,0,0,8.39,0c.78-.93,1.2-1.38,2.1-1.38s1.31.45,2.1,1.38a4.92,4.92,0,0,0,8.39,0c.79-.93,1.2-1.38,2.1-1.38s1.32.45,2.1,1.38a4.92,4.92,0,0,0,8.39,0c.79-.93,1.21-1.38,2.1-1.38s1.32.45,2.11,1.38a4.92,4.92,0,0,0,8.39,0c.78-.93,1.2-1.38,2.1-1.38s1.32.45,2.1,1.38a4.92,4.92,0,0,0,8.39,0c.79-.93,1.21-1.38,2.11-1.38s1.31.45,2.1,1.38a4.92,4.92,0,0,0,8.39,0c.79-.93,1.2-1.38,2.1-1.38s1.32.45,2.11,1.38a4.92,4.92,0,0,0,8.39,0c.78-.93,1.2-1.38,2.1-1.38a1.37,1.37,0,0,0,1.37-1.37,1.33,1.33,0,0,0-.08-.45l.08-71.58A1.37,1.37,0,0,0,126.35,1.53Zm-2.42,68.34-20.39-29v-37H124ZM49.2,45.61,54,52.35,49.2,59.13ZM55.63,50l-6.43-9.1v-37h51.6v37L94.37,50,76.12,24a1.36,1.36,0,0,0-2.24,0ZM82.3,37.57H76.46V29.26Zm-5.84,2.74h7.76l7,10H76.46Zm0,12.72H93.17l7.24,10.31h-24ZM96,52.35l4.76-6.74V59.13ZM46.46,3.87v37L26,70V3.87ZM33,75.51c-.79.93-1.2,1.38-2.1,1.38s-1.32-.45-2.1-1.38a7.09,7.09,0,0,0-2.07-1.84l19.71-28V63L39.07,73.54a4.56,4.56,0,0,0-1.86-.38A5.25,5.25,0,0,0,33,75.51Zm37.78,0c-.79.93-1.2,1.38-2.1,1.38s-1.32-.45-2.1-1.38a4.92,4.92,0,0,0-8.39,0c-.79.93-1.21,1.38-2.11,1.38s-1.31-.45-2.1-1.38a4.92,4.92,0,0,0-8.39,0c-.78.93-1.2,1.38-2.1,1.38s-1.31-.45-2.1-1.38l-.21-.25,7.76-11h0L73.72,29V73.33A6,6,0,0,0,70.8,75.51Zm35.68,1.38c-.9,0-1.31-.45-2.1-1.38a4.92,4.92,0,0,0-8.39,0c-.79.93-1.2,1.38-2.1,1.38s-1.32-.45-2.11-1.38a4.92,4.92,0,0,0-8.39,0c-.78.93-1.2,1.38-2.1,1.38s-1.31-.45-2.1-1.38a6.09,6.09,0,0,0-2.73-2.12V66.08h25.88l6.46,9.18-.21.25C107.8,76.44,107.38,76.89,106.48,76.89Zm14.7-1.38c-.78.93-1.2,1.38-2.1,1.38s-1.32-.45-2.1-1.38a5.27,5.27,0,0,0-4.2-2.35,4.51,4.51,0,0,0-1.85.38L103.54,63V45.63l19.71,28A7.09,7.09,0,0,0,121.18,75.51Z"/><path class="cls-4" d="M29.29,115.76v-.43h1.79l-1-3.07H26.29l-1.08,3.07H27v.43H23.3v-.43h1.39l4.15-11.42h.61l4,11.42h1.37v.43ZM28.23,107l-1.75,4.84h3.37Z"/><path class="cls-5" d="M42,115.76c-.29,0-.6,0-.92,0s-.6,0-.81,0l-.52.07v-1.34a2.64,2.64,0,0,1-1,1.15,2.76,2.76,0,0,1-1.26.31,2.61,2.61,0,0,1-2.24-1.35,6.11,6.11,0,0,1-.89-3.37,5.54,5.54,0,0,1,1-3.32,2.9,2.9,0,0,1,2.36-1.42,2.32,2.32,0,0,1,1.11.3,2.27,2.27,0,0,1,.94,1.16V104.6H38.46v-.43h.89l.67,0,.67-.09.89-.13v11.42h1.27v.43Zm-2.25-5.08a5.19,5.19,0,0,0-.63-2.7,1.77,1.77,0,0,0-1.51-1.07c-.41,0-.71.25-.9.76a5.5,5.5,0,0,0-.32,2v3.18a5.42,5.42,0,0,0,.32,2c.22.53.53.79.93.79a1.77,1.77,0,0,0,1.45-1,4.29,4.29,0,0,0,.66-2.34Z"/><path class="cls-6" d="M49.67,107.1,46.88,116h-.47l-2.8-8.92h-.88v-.43h3.94v.43H45.58l1.73,6.06,1.84-6.06H48v-.43h2.68v.43Z"/><path class="cls-7" d="M55.7,115.15a2.9,2.9,0,0,1-2.05.87,2.84,2.84,0,0,1-2.31-1.37,5.25,5.25,0,0,1-1-3.19,5.76,5.76,0,0,1,1-3.46,3,3,0,0,1,2.46-1.44A2.66,2.66,0,0,1,56,107.67a4.15,4.15,0,0,1,.91,2.69c0,.07,0,.13,0,.19l0,.14a.11.11,0,0,1-.12.12H52.4v1.67a6.44,6.44,0,0,0,.34,2.36,1.19,1.19,0,0,0,1.18.84,2,2,0,0,0,1.72-1.08,7.25,7.25,0,0,0,.55-1.07,4.15,4.15,0,0,0,.3-1h.44A5.24,5.24,0,0,1,55.7,115.15Zm-1.06-7.63a1.05,1.05,0,0,0-2,.19,8,8,0,0,0-.26,2.36v.31h2.51l0-1.2A3.49,3.49,0,0,0,54.64,107.52Z"/><path class="cls-8" d="M61.91,115.76v-.43H63V110c0-.45,0-.85,0-1.2a5.43,5.43,0,0,0-.13-.86c-.13-.49-.39-.73-.78-.73s-.94.35-1.34,1.06a6.31,6.31,0,0,0-.6,3v4H61.2v.43H57.09v-.43h1.18V107.1H57.09v-.43l3-.09v1.65a2.76,2.76,0,0,1,1.14-1.29,3,3,0,0,1,1.44-.38,1.74,1.74,0,0,1,1.65.89,5.38,5.38,0,0,1,.49,2.6v5.28h1.11v.43Z"/><path class="cls-9" d="M70.5,115.54A2.12,2.12,0,0,1,69,116a2.16,2.16,0,0,1-1.35-.31,1.27,1.27,0,0,1-.42-1.09v-7.43H66.08v-.52h1.11v-1.46l1.87-.45v1.91h1.63v.52H69.06v7.39a1,1,0,0,0,.14.59.67.67,0,0,0,.52.18.9.9,0,0,0,.68-.26,1.83,1.83,0,0,0,.4-.66l.35.17A2.13,2.13,0,0,1,70.5,115.54Z"/><path class="cls-10" d="M79.27,115.76c-.35,0-.58,0-.69,0l-.42,0-.54.08v-1.56a3.48,3.48,0,0,1-1.2,1.28,2.61,2.61,0,0,1-1.4.4,1.79,1.79,0,0,1-1.55-.74,3.4,3.4,0,0,1-.55-2V107.1H71.79v-.43l3-.07v7.18A3.28,3.28,0,0,0,75,115a.62.62,0,0,0,.59.45,1.73,1.73,0,0,0,1.44-1,5,5,0,0,0,.6-2.5V107.1H76.3v-.43l3.18-.07v8.73h1.2v.43Z"/><path class="cls-11" d="M87.46,108.66h-.07c-.56,0-.86-.25-.9-.76l.07-.57a.12.12,0,0,0,0-.09h-.11c-.45,0-.87.46-1.25,1.39a8.54,8.54,0,0,0-.57,3.23v3.49h1.56v.43H81.7v-.43h1V107.1H81.58v-.43l3-.09v1.93A4.36,4.36,0,0,1,85.71,107a2.25,2.25,0,0,1,1.37-.47,1.38,1.38,0,0,1,1,.33,1.09,1.09,0,0,1,.37.83A.87.87,0,0,1,87.46,108.66Z"/><path class="cls-12" d="M94,115.15a2.72,2.72,0,0,1-4.36-.5,5.24,5.24,0,0,1-1-3.19,5.82,5.82,0,0,1,1-3.46,3,3,0,0,1,2.47-1.44,2.67,2.67,0,0,1,2.15,1.11,4.14,4.14,0,0,1,.9,2.69,1.15,1.15,0,0,1,0,.19.59.59,0,0,1,0,.14.11.11,0,0,1-.12.12H90.69v1.67a6.41,6.41,0,0,0,.35,2.36,1.18,1.18,0,0,0,1.18.84,2,2,0,0,0,1.72-1.08,8.37,8.37,0,0,0,.55-1.07,5.18,5.18,0,0,0,.3-1h.43A5.08,5.08,0,0,1,94,115.15Zm-1.06-7.63a1.05,1.05,0,0,0-2,.19,8.3,8.3,0,0,0-.26,2.36v.31h2.52l0-1.2A3.49,3.49,0,0,0,92.93,107.52Z"/><path class="cls-13" d="M104.37,109.67a6,6,0,0,1-3.33.83h-2v4.83h1.86v.43H95.15v-.43h1.72V104.6H95.15v-.43H101a6.48,6.48,0,0,1,3.44.76,2.63,2.63,0,0,1,1.22,2.38A2.7,2.7,0,0,1,104.37,109.67Zm-1.66-4.41a1.68,1.68,0,0,0-1.5-.66H99.08v5.47h2.06a1.69,1.69,0,0,0,1.53-.7,3.63,3.63,0,0,0,.49-2.11A3.57,3.57,0,0,0,102.71,105.26Z"/><path class="cls-14" d="M108.64,115.76v-.43h1.79l-1-3.07h-3.77l-1.08,3.07h1.78v.43h-3.69v-.43H104l4.15-11.42h.61l4,11.42h1.37v.43ZM107.58,107l-1.75,4.84h3.37Z"/><path class="cls-15" d="M114.58,115.76v-.43h1.72V104.6h-1.72v-.43h5.64v.43H118.5v10.73h1.72v.43Zm6.79,0v-.43h1.8l-4.47-5.57,4.84-5.16h-2v-.43h4.36v.43h-1.7l-3.79,4,5.54,6.75h.78v.43Z"/></svg>